<svg xmlns="http://www.w3.org/2000/svg" xmlns:serif="http://www.serif.com/" fill-rule="evenodd" stroke-linecap="round" stroke-linejoin="round" stroke-miterlimit="1.5" clip-rule="evenodd" viewBox="0 0 343 23">
  <path fill="#4038a0" d="M335.04 8.81A2.03 2.03 0 0 1 333 6.78V2.04c0-.59-.32-.76-.9-.76h-4.19c-.58 0-.9.17-.9.76v19.43c0 .58.17.76.75.76h4.48c.59 0 .76-.18.76-.76V16.8a2.11 2.11 0 0 1 2.11-2.11c1.16 0 2.1.94 2.1 2.1v4.83c0 .58.18.76.76.76h4.18c.58 0 .75-.18.75-.76V2.2c0-.58-.32-.75-.9-.75h-4.03c-.58 0-.9.17-.9.75v2.55A4.07 4.07 0 0 1 333 8.81h2.04z"/>
  <clipPath id="a">
    <path d="M335.04 8.81A2.03 2.03 0 0 1 333 6.78V2.04c0-.59-.32-.76-.9-.76h-4.19c-.58 0-.9.17-.9.76v19.43c0 .58.17.76.75.76h4.48c.59 0 .76-.18.76-.76V16.8a2.11 2.11 0 0 1 2.11-2.11c1.16 0 2.1.94 2.1 2.1v4.83c0 .58.18.76.76.76h4.18c.58 0 .75-.18.75-.76V2.2c0-.58-.32-.75-.9-.75h-4.03c-.58 0-.9.17-.9.75v2.55A4.07 4.07 0 0 1 333 8.81h2.04z"/>
  </clipPath>
  <g clip-path="url(#a)">
    <path fill="#fff" d="M337.75 20.38c1.66.45 2.44-1.98 2.5-3.02.05-.64-.08-1.27-.05-1.91.03-.66.09-1.51-.45-2.14-.72-.83-1.62.43-1.77.97a15.31 15.31 0 0 0-.46 5.35c.01.18.05.36.1.53.03.08.05.2.13.22m-10.13-.7c-.06-2.73.03-5.77 0-8.5-.02-1.92.05-3.85-.01-5.77-.03-.9-.28-2.43.5-3 .32-.24.78-.36 1.18-.38.41-.03.84-.03 1.25.06.59.14.57.47.32.9-.52.94-.96.87-1 2.04-.1 3.98 0 9.88-.17 13.87-.04.96-2.13 2.08-2.07.78m3.82-8.47c.13.52.85.47 1.23.48 1.72.02 3.43.18 5.15.18.37 0 1.17.01 1.53-.12.77-.3.86-1.5.87-2.14 0-1.62-.32-3.19-.1-4.81.1-.75.36-1.02.78-1.59.12-.16.35-.5.24-.74-.1-.21-.55-.36-.74-.38-1-.1-1.15-.21-2.11.07-.18.06-.47.4-.47.62.03 1.6-.28 3.19-.2 4.78.02.36.07 1.14-.12 1.48-.25.46-.29.4-.75.43-2.08.1-2.1-.26-4.16-.07-.7.06-1.33 1.09-1.15 1.8" serif:id="H"/>
  </g>
  <path fill="none" stroke="#2c2b93" stroke-width=".75" d="M335.04 8.81A2.03 2.03 0 0 1 333 6.78V2.04c0-.59-.32-.76-.9-.76h-4.19c-.58 0-.9.17-.9.76v19.43c0 .58.17.76.75.76h4.48c.59 0 .76-.18.76-.76V16.8a2.11 2.11 0 0 1 2.11-2.11c1.16 0 2.1.94 2.1 2.1v4.83c0 .58.18.76.76.76h4.18c.58 0 .75-.18.75-.76V2.2c0-.58-.32-.75-.9-.75h-4.03c-.58 0-.9.17-.9.75v2.55A4.07 4.07 0 0 1 333 8.81h2.04z"/>
  <path fill="#4038a0" d="M316.35 1.28a6.7 6.7 0 0 1 6.73 6.57c0 1.45-.62 2.34-1.42 3.42h.02a6.57 6.57 0 0 1-5.02 10.8h-6.36c-.84 0-.91-.38-.91-1.22V2.5c0-.84.07-1.22.91-1.22h6.05zm-.87 15.42a.35.35 0 0 1-.35-.34v-1.42c0-.2.15-.35.34-.35h.34c.75 0 1.36.3 1.36 1.05s-.61 1.06-1.36 1.06h-.33zm-.04-7.87a.3.3 0 0 1-.22-.08.3.3 0 0 1-.1-.22V7.34c0-.17.14-.3.31-.3h.3c.66 0 1.2.23 1.2.9 0 .65-.54.89-1.2.89h-.3z"/>
  <clipPath id="b">
    <path d="M316.35 1.28a6.7 6.7 0 0 1 6.73 6.57c0 1.45-.62 2.34-1.42 3.42h.02a6.57 6.57 0 0 1-5.02 10.8h-6.36c-.84 0-.91-.38-.91-1.22V2.5c0-.84.07-1.22.91-1.22h6.05zm-.87 15.42a.35.35 0 0 1-.35-.34v-1.42c0-.2.15-.35.34-.35h.34c.75 0 1.36.3 1.36 1.05s-.61 1.06-1.36 1.06h-.33zm-.04-7.87a.3.3 0 0 1-.22-.08.3.3 0 0 1-.1-.22V7.34c0-.17.14-.3.31-.3h.3c.66 0 1.2.23 1.2.9 0 .65-.54.89-1.2.89h-.3z" serif:id="B"/>
  </clipPath>
  <g clip-path="url(#b)">
    <path fill="#fff" d="M311.18 1.95c2.19.02 6.59-.4 8.18.77 1.6 1.18.76 2.16-1.26 1.82-2.02-.33-2.74-.3-4.46-.35-1.15-.03-1.4-.01-1.48 1.2-.09 1.2.56 12.45-.2 13.82-.75 1.37-1.76 2.3-2.13.4-.36-1.91-.16-13.62-.04-15.68.07-1.07-.18-2 1.4-1.98zm9.27 12.88c.13.86-.01 3.02-1.47 3.94-.98.61-2.45 1.03-4.79.72-2.13-.28-.4-2.18 1.53-2.34 1.33-.1 2.03.23 2.13-2.43.07-1.8 2.26-1.96 2.6.1zm-.33-7.6c.14.87.15 2.88-1.32 3.8-.97.61-1.84 1.03-4.17.72-2.13-.28-.42-2.16 1.53-2.19 1.14-.01 1.47-.84 1.52-2.58.06-1.8 2.11-1.8 2.44.26z" serif:id="B"/>
  </g>
  <path fill="none" stroke="#2c2b93" stroke-width=".75" d="M316.35 1.28a6.7 6.7 0 0 1 6.73 6.57c0 1.45-.62 2.34-1.42 3.42h.02a6.57 6.57 0 0 1-5.02 10.8h-6.36c-.84 0-.91-.38-.91-1.22V2.5c0-.84.07-1.22.91-1.22h6.05zm-.87 15.42a.35.35 0 0 1-.35-.34v-1.42c0-.2.15-.35.34-.35h.34c.75 0 1.36.3 1.36 1.05s-.61 1.06-1.36 1.06h-.33zm-.04-7.87a.3.3 0 0 1-.22-.08.3.3 0 0 1-.1-.22V7.34c0-.17.14-.3.31-.3h.3c.66 0 1.2.23 1.2.9 0 .65-.54.89-1.2.89h-.3z" serif:id="B"/>
  <path fill="#4038a0" d="M294.69 8.97a1.03 1.03 0 0 1-1.73-.01c-1.36-2.15-4.1-5.78-5-7.19-.19-.3-.52-.49-.89-.49h-2.31c-.84 0-1.52.38-1.52 1.22v18.96c0 .84.22.92 1.06.92h3.96c.84 0 1.07-.08 1.07-.92 0 0-.15-3.82-.15-5.61 0-.2.13-.38.31-.44.2-.06.4 0 .52.16.77 1.05 2.08 2.35 3 2.4 1.6.06 2.54.66 3.44-1.37.43-.99 1.9-1.48 2.02-.45v5.3c0 .85.24.93 1.08.93h3.8c.84 0 1.07-.08 1.07-.92V2.36c0-.85-.68-1.23-1.52-1.23h-2.18c-.35 0-.69.18-.88.48-.91 1.4-3.75 5.21-5.15 7.36z"/>
  <clipPath id="c">
    <path d="M294.69 8.97a1.03 1.03 0 0 1-1.73-.01c-1.36-2.15-4.1-5.78-5-7.19-.19-.3-.52-.49-.89-.49h-2.31c-.84 0-1.52.38-1.52 1.22v18.96c0 .84.22.92 1.06.92h3.96c.84 0 1.07-.08 1.07-.92 0 0-.15-3.82-.15-5.61 0-.2.13-.38.31-.44.2-.06.4 0 .52.16.77 1.05 2.08 2.35 3 2.4 1.6.06 2.54.66 3.44-1.37.43-.99 1.9-1.48 2.02-.45v5.3c0 .85.24.93 1.08.93h3.8c.84 0 1.07-.08 1.07-.92V2.36c0-.85-.68-1.23-1.52-1.23h-2.18c-.35 0-.69.18-.88.48-.91 1.4-3.75 5.21-5.15 7.36z" serif:id="M"/>
  </clipPath>
  <g clip-path="url(#c)">
    <path fill="#fff" d="M300.88 8.28c1.39-1.27.56 9.19.46 10.7-.09 1.3-2.2 2.37-2.14.86.1-2.6-.2-3.98 0-6.66.09-1.32.72-4.03 1.68-4.9zm-16.35-6.2c.82-.29 2.36-.43 2.25.85a9.96 9.96 0 0 1-.29 1.68c-.2.73-.24 1.42-.29 2.18a82.13 82.13 0 0 0-.14 3.84c-.03 2-.13 3.97-.05 5.97.04 1.02.06 2.01-.44 2.94-.8 1.44-1.68.25-1.67-.17.05-3.74-.02-8.89-.05-10.47-.02-1.03-.57-6.4.68-6.83zM288.75 8c.21.42 1.53 2.46 1.79 2.85.87 1.28 1.8 2.08 2.5 3.48.31.64.82 1.51.15 2.18-.64.64-1.22.19-1.62-.25-.85-.94-1.14-1.69-1.72-2.8a39.7 39.7 0 0 1-2.01-4.65c-.34-1.38.54-1.56.91-.81zM300.7 2.3c1.42-.86 2.36-.33 1.97.5-.4.84-5.13 7.8-6.66 9.95-1.42 2-2.41.98-2.06-1.08.35-2.07 5.3-8.5 6.75-9.37z" serif:id="M"/>
  </g>
  <path fill="none" stroke="#2c2b93" stroke-width=".75" d="M294.69 8.97a1.03 1.03 0 0 1-1.73-.01c-1.36-2.15-4.1-5.78-5-7.19-.19-.3-.52-.49-.89-.49h-2.31c-.84 0-1.52.38-1.52 1.22v18.96c0 .84.22.92 1.06.92h3.96c.84 0 1.07-.08 1.07-.92 0 0-.15-3.82-.15-5.61 0-.2.13-.38.31-.44.2-.06.4 0 .52.16.77 1.05 2.08 2.35 3 2.4 1.6.06 2.54.66 3.44-1.37.43-.99 1.9-1.48 2.02-.45v5.3c0 .85.24.93 1.08.93h3.8c.84 0 1.07-.08 1.07-.92V2.36c0-.85-.68-1.23-1.52-1.23h-2.18c-.35 0-.69.18-.88.48-.91 1.4-3.75 5.21-5.15 7.36z" serif:id="M"/>
  <path fill="#4038a0" d="M270.5 22.52c2.96 0 6.33-1.08 7.93-3.35.7-1 .39-7.55.41-9.47 0-.77-.63-1.29-1.26-1.33-.63-.03-5.35.11-6.09.11-.73 0-1.54.8-1.57 1.26-.04.45-.04 2.62-.04 3.7 0 1.1.84 1.1 1.37 1.1.52 0 1.43.06 1.4.94-.04.87-.95 1.02-2.15 1.05a4.95 4.95 0 0 1-5.16-4.93c0-3.01 2.14-5.2 5.16-5.16.65.01 1.22.03 1.8.2.82.23 1.7 0 2.3-.61.33-.26.65-.58.96-.9a2.39 2.39 0 0 0-.66-3.83 11.86 11.86 0 0 0-4.25-.93c-6.03 0-11.38 5.2-11.38 11.23s5.2 10.92 11.22 10.92z"/>
  <clipPath id="d">
    <path d="M270.5 22.52c2.96 0 6.33-1.08 7.93-3.35.7-1 .39-7.55.41-9.47 0-.77-.63-1.29-1.26-1.33-.63-.03-5.35.11-6.09.11-.73 0-1.54.8-1.57 1.26-.04.45-.04 2.62-.04 3.7 0 1.1.84 1.1 1.37 1.1.52 0 1.43.06 1.4.94-.04.87-.95 1.02-2.15 1.05a4.95 4.95 0 0 1-5.16-4.93c0-3.01 2.14-5.2 5.16-5.16.65.01 1.22.03 1.8.2.82.23 1.7 0 2.3-.61.33-.26.65-.58.96-.9a2.39 2.39 0 0 0-.66-3.83 11.86 11.86 0 0 0-4.25-.93c-6.03 0-11.38 5.2-11.38 11.23s5.2 10.92 11.22 10.92z"/>
  </clipPath>
  <g clip-path="url(#d)">
    <path fill="#fff" d="M275.8 14.2c.13.86.22 2.97-.5 3.6a6.69 6.69 0 0 1-5.18 1.52c-1.32-.1-4.08-.42-4.54-1.87-.18-.55.31-1.36 1.16-.98.72.33 1.7.83 2.5.84 1.1.01 2.19.32 3.81-.72.81-.52.3-2.1.7-2.71.47-.72 1.8-1.45 2.05.33zM262.21 18c-3.94-4.87-1.65-11.04.42-13.3 1.16-1.26 3.96-3.43 7.33-3.5.86-.02 4 .2 5.18 1.33.87.83-1.52 1.12-2.22 1.11-2.82-.05-4.38-.56-6.94 1.12-2.58 1.69-4.75 5.14-3.8 8.3.61 2.06 1.7 3.13 1.71 3.95 0 .72-1.22 1.55-1.68 1zm8.63-8.51c.62-.77 5.37-.38 5.83-.14.75.4.06 1.55-.65 1.82-.33.13-2.44.28-2.9.57-.95.62-1.18 1.12-1.84.83-1.15-.5-.84-2.57-.44-3.08z" serif:id="G"/>
  </g>
  <path fill="none" stroke="#2c2b93" stroke-width=".75" d="M270.5 22.52c2.96 0 6.33-1.08 7.93-3.35.7-1 .39-7.55.41-9.47 0-.77-.63-1.29-1.26-1.33-.63-.03-5.35.11-6.09.11-.73 0-1.54.8-1.57 1.26-.04.45-.04 2.62-.04 3.7 0 1.1.84 1.1 1.37 1.1.52 0 1.43.06 1.4.94-.04.87-.95 1.02-2.15 1.05a4.95 4.95 0 0 1-5.16-4.93c0-3.01 2.14-5.2 5.16-5.16.65.01 1.22.03 1.8.2.82.23 1.7 0 2.3-.61.33-.26.65-.58.96-.9a2.39 2.39 0 0 0-.66-3.83 11.86 11.86 0 0 0-4.25-.93c-6.03 0-11.38 5.2-11.38 11.23s5.2 10.92 11.22 10.92z"/>
  <path fill="#4038a0" d="M242.34 7.87a.99.99 0 0 0 .99.98h2.96c.17 0 .04.07.16.2.13.13.5.3.5.47v4.26a.67.67 0 0 1-.66.67h-2.93a1.02 1.02 0 0 0-1.02 1.01 1.01 1.01 0 0 0 1.02 1.02h4.37a.67.67 0 0 1 .67.67v4.25a.67.67 0 0 1-.67.67H237.4a1.14 1.14 0 0 1-1.15-1.15V2.28a1.14 1.14 0 0 1 1.15-1.15h10.34a.67.67 0 0 1 .67.67v4.4a.67.67 0 0 1-.67.67h-4.4a.99.99 0 0 0-1 1z"/>
  <clipPath id="e">
    <path d="M242.34 7.87a.99.99 0 0 0 .99.98h2.96c.17 0 .04.07.16.2.13.13.5.3.5.47v4.26a.67.67 0 0 1-.66.67h-2.93a1.02 1.02 0 0 0-1.02 1.01 1.01 1.01 0 0 0 1.02 1.02h4.37a.67.67 0 0 1 .67.67v4.25a.67.67 0 0 1-.67.67H237.4a1.14 1.14 0 0 1-1.15-1.15V2.28a1.14 1.14 0 0 1 1.15-1.15h10.34a.67.67 0 0 1 .67.67v4.4a.67.67 0 0 1-.67.67h-4.4a.99.99 0 0 0-1 1z"/>
  </clipPath>
  <g clip-path="url(#e)">
    <path fill="#fff" d="M237.38 2.04c2.4 0 4.8.03 7.2.06.57.01 1.3.04 1.83.33.8.44-.6 1.11-.79 1.17-1.68.44-2 .17-3.7.14-.74-.01-1.77-.01-2.41.48-.17.13-.17.4-.18.6-.08 1.08-.08 2.16-.1 3.24-.02 1.88.21 8.4.02 10.27-.05.5-.92 2.28-1.83 2.07-.33-.08-.57-.7-.6-.97-.15-1.7.07-1.72.09-3.43.03-3.65.02-7.3.02-10.96 0-.87-.15-1.71.2-2.55l.25-.46zm3.4 16.47c0-.16 0-.45.1-.6.3-.43 1.1-.65 1.54-.68 1.27-.09 1.65.12 2.93.19.4.02.62.14.95.33.07.04.22.17.2.27-.01.19-.2.43-.3.57-.13.18-.38.21-.58.32-.74.4-1.65.38-2.43.3-.47-.04-1.1.06-1.57 0-.23-.02-.77 0-.77-.38l-.07-.32zm.3-8.31c.6-.76 1.81-.6 2.91-.48.36.04 1.24.53.78 1.02-.7.76-1.71.58-2.66.64-.48.04-1.15.13-1.15-.56 0-.5.12-.62.12-.62z" serif:id="E"/>
  </g>
  <path fill="none" stroke="#2c2b93" stroke-width=".75" d="M242.34 7.87a.99.99 0 0 0 .99.98h2.96c.17 0 .04.07.16.2.13.13.5.3.5.47v4.26a.67.67 0 0 1-.66.67h-2.93a1.02 1.02 0 0 0-1.02 1.01 1.01 1.01 0 0 0 1.02 1.02h4.37a.67.67 0 0 1 .67.67v4.25a.67.67 0 0 1-.67.67H237.4a1.14 1.14 0 0 1-1.15-1.15V2.28a1.14 1.14 0 0 1 1.15-1.15h10.34a.67.67 0 0 1 .67.67v4.4a.67.67 0 0 1-.67.67h-4.4a.99.99 0 0 0-1 1z"/>
  <path fill="#4038a0" d="M226.23 11a2.24 2.24 0 0 0-4.47.27l-.01.56a2.26 2.26 0 0 0 4.5.25l.01-.55c0-.18 0-.36-.03-.53zm-4.48 11.07h-4.88c-.84 0-1.22-.38-1.22-1.22V2.65c0-.83.69-1.52 1.53-1.52h4.57c5.9 0 10.46 4.49 10.46 10.4 0 5.9-4.56 10.54-10.46 10.54z"/>
  <clipPath id="f">
    <path d="M226.23 11a2.24 2.24 0 0 0-4.47.27l-.01.56a2.26 2.26 0 0 0 4.5.25l.01-.55c0-.18 0-.36-.03-.53zm-4.48 11.07h-4.88c-.84 0-1.22-.38-1.22-1.22V2.65c0-.83.69-1.52 1.53-1.52h4.57c5.9 0 10.46 4.49 10.46 10.4 0 5.9-4.56 10.54-10.46 10.54z" serif:id="D"/>
  </clipPath>
  <g clip-path="url(#f)">
    <path fill="#fff" d="M216.7 2.49c.27-.7 4.44-.51 5.38-.35.54.09 2.79.39 3.38.56.65.19 1.67.8 1.58 1.56-.07.64-1.32.86-1.8.71-.34-.1-3.3-.98-4.44-.97-2.87.04-1.9 1.6-2.13 3.44-.28 2.18.13 11.14-.44 11.91a6.2 6.2 0 0 1-.9.88c-1.08.52-.9-1.3-.9-1.86 0-.17-.35-14.23.28-15.88zm10.11 3.96c2.24.62 2.55 4.23 2.41 6.25-.2 2.83-3.11 6.53-7.83 6.29-.4-.02-1.57-.32-1.08-.97 1.03-1.38 1.85-1.05 2.9-1.36a5.1 5.1 0 0 0 3.42-3.16c.45-1.2.35-3-.37-3.92-1.17-1.47-2.22-3.9.55-3.13z" serif:id="D"/>
  </g>
  <path fill="none" stroke="#2c2b93" stroke-width=".75" d="M226.23 11a2.24 2.24 0 0 0-4.47.27l-.01.56a2.26 2.26 0 0 0 4.5.25l.01-.55c0-.18 0-.36-.03-.53zm-4.48 11.07h-4.88c-.84 0-1.22-.38-1.22-1.22V2.65c0-.83.69-1.52 1.53-1.52h4.57c5.9 0 10.46 4.49 10.46 10.4 0 5.9-4.56 10.54-10.46 10.54z" serif:id="D"/>
  <path fill="#4038a0" d="M200.84.68a10.93 10.93 0 0 1 0 21.84c-6.03 0-11.23-4.9-11.23-10.92 0-6.03 5.2-10.92 11.23-10.92zm0 5.76a4.96 4.96 0 0 1 5.15 5.16 4.96 4.96 0 0 1-5.15 5.16 4.96 4.96 0 0 1-5.16-5.16 4.96 4.96 0 0 1 5.16-5.16z"/>
  <clipPath id="g">
    <path d="M200.84.68a10.93 10.93 0 0 1 0 21.84c-6.03 0-11.23-4.9-11.23-10.92 0-6.03 5.2-10.92 11.23-10.92zm0 5.76a4.96 4.96 0 0 1 5.15 5.16 4.96 4.96 0 0 1-5.15 5.16 4.96 4.96 0 0 1-5.16-5.16 4.96 4.96 0 0 1 5.16-5.16z"/>
  </clipPath>
  <g clip-path="url(#g)">
    <path fill="#fff" d="M197 16.56c1.13.17 2.22.91 3.37 1a5.54 5.54 0 0 0 5.35-2.87 6.88 6.88 0 0 0 .67-4.65c-.06-.26-1.16-1.75-1.13-2.7.02-.97 1.38-.93 1.78-.34a7.24 7.24 0 0 1 1.48 3.91 7.88 7.88 0 0 1-7.28 8.43c-1.3.08-2.84-.19-4.04-.65-1.45-.57-1.91-2.4-.2-2.13zm8.86-11.58c-.73.24-1.06-.76-2.07-1.08-2.47-.8-5.76-.77-9.11 1.8-2.58 2-2.44 7.15-1.6 9.13.28.66 1.53 2 1.2 2.99-.4 1.16-2.21.36-2.62-.74-1.97-5.33-1.51-7.4.17-10.82.6-1.21 4.37-6.53 13.34-3.93 1.29.37 3.15 1.86.7 2.65z" serif:id="O"/>
  </g>
  <path fill="none" stroke="#2c2b93" stroke-width=".75" d="M200.84.68a10.93 10.93 0 0 1 0 21.84c-6.03 0-11.23-4.9-11.23-10.92 0-6.03 5.2-10.92 11.23-10.92zm0 5.76a4.96 4.96 0 0 1 5.15 5.16 4.96 4.96 0 0 1-5.15 5.16 4.96 4.96 0 0 1-5.16-5.16 4.96 4.96 0 0 1 5.16-5.16z"/>
  <path fill="#4038a0" d="M177.32 8.5a2.1 2.1 0 0 1-2.11-2.1V2.19c0-.58-.48-1.06-1.06-1.06h-3.87c-.59 0-1.06.48-1.06 1.06v18.82c0 .59.47 1.06 1.06 1.06h4.33c.58 0 .75-.47.75-1.06v-4.29a2.04 2.04 0 0 1 2.04-2.03c1.12 0 2.03.9 2.03 2.03v4.3c0 .58.47 1.05 1.06 1.05h4.17c.59 0 .91-.47.91-1.06V2.04c0-.59-.47-1.06-1.06-1.06h-4.02c-.59 0-1.06.47-1.06 1.06v2.25a4.22 4.22 0 0 1-4.22 4.22h2.11z" serif:id="H"/>
  <clipPath id="h">
    <path d="M177.32 8.5a2.1 2.1 0 0 1-2.11-2.1V2.19c0-.58-.48-1.06-1.06-1.06h-3.87c-.59 0-1.06.48-1.06 1.06v18.82c0 .59.47 1.06 1.06 1.06h4.33c.58 0 .75-.47.75-1.06v-4.29a2.04 2.04 0 0 1 2.04-2.03c1.12 0 2.03.9 2.03 2.03v4.3c0 .58.47 1.05 1.06 1.05h4.17c.59 0 .91-.47.91-1.06V2.04c0-.59-.47-1.06-1.06-1.06h-4.02c-.59 0-1.06.47-1.06 1.06v2.25a4.22 4.22 0 0 1-4.22 4.22h2.11z"/>
  </clipPath>
  <g clip-path="url(#h)">
    <path fill="#fff" d="M180.57 19.93c1.27.4 1.83-1.68 1.9-2.72.04-.64-.09-1.13-.06-1.76.03-.66.24-1.68-.45-2.14-.6-.4-1.16.13-1.32.67-.52 1.82-.41 3.32-.3 5.2 0 .18.05.36.1.53.02.08.04.2.13.22m-10.44-.7c-.06-2.74-.12-5.47-.15-8.2-.02-1.93.05-3.85 0-5.77-.04-.9-.3-2.54.49-3 .34-.21.78-.2 1.18-.23.42-.03.84-.03 1.25.06.6.14.31.84-.08 1.16-.69.58-.56.46-.6 1.63-.1 3.98 0 9.88-.17 13.87-.04.96-1.97 1.77-1.92.48m3.67-8.18c.13.53.85.48 1.24.49 1.71.02 3.42.02 5.14.03.37 0 1.17.01 1.53-.13.77-.3.71-1.35.72-1.98 0-1.63-.32-3.19-.1-4.81.1-.76.5-1.02.93-1.59.12-.17.35-.5.24-.75-.1-.2-.55-.35-.74-.37a4 4 0 0 0-2.11.22c-.17.06-.47.24-.47.47.03 1.6-.13 3.19-.05 4.78.02.36.08 1.14-.11 1.48-.26.46-.75.55-1.21.58-2.08.1-1.79-.11-3.86.08-.7.07-1.33.79-1.15 1.5" serif:id="H"/>
  </g>
  <path fill="none" stroke="#2c2b93" stroke-width=".75" d="M177.32 8.5a2.1 2.1 0 0 1-2.11-2.1V2.19c0-.58-.48-1.06-1.06-1.06h-3.87c-.59 0-1.06.48-1.06 1.06v18.82c0 .59.47 1.06 1.06 1.06h4.33c.58 0 .75-.47.75-1.06v-4.29a2.04 2.04 0 0 1 2.04-2.03c1.12 0 2.03.9 2.03 2.03v4.3c0 .58.47 1.05 1.06 1.05h4.17c.59 0 .91-.47.91-1.06V2.04c0-.59-.47-1.06-1.06-1.06h-4.02c-.59 0-1.06.47-1.06 1.06v2.25a4.22 4.22 0 0 1-4.22 4.22h2.11z"/>
  <path fill="#4038a0" d="M157.09 1.28a7.92 7.92 0 0 1 8.13 8.1c0 2.49-.63 4.72-2.34 6.26a.56.56 0 0 0-.13.67c.53 1.02 1.8 3.74 2.48 5.05.08.15.07.33-.01.48a.49.49 0 0 1-.42.23h-5.36a.9.9 0 0 1-.7-.35c-.47-.61-1.15-1.6-1.86-2.54-.13-.16-.19-.07-.38 0a.47.47 0 0 0-.32.44v1.57c0 .57-.62.88-1.19.88h-3.84c-.84 0-1.22-.38-1.22-1.22l-.15-18.35c0-.84.83-1.22 1.67-1.22h5.64zm-.35 10.14a.55.55 0 0 1-.56-.56v-2.8c0-.3.24-.56.55-.56h.54c1.2 0 1.88.67 1.88 1.88 0 1.2-.67 2.03-1.88 2.03l-.53.01z"/>
  <clipPath id="i">
    <path d="M157.09 1.28a7.92 7.92 0 0 1 8.13 8.1c0 2.49-.63 4.72-2.34 6.26a.56.56 0 0 0-.13.67c.53 1.02 1.8 3.74 2.48 5.05.08.15.07.33-.01.48a.49.49 0 0 1-.42.23h-5.36a.9.9 0 0 1-.7-.35c-.47-.61-1.15-1.6-1.86-2.54-.13-.16-.19-.07-.38 0a.47.47 0 0 0-.32.44v1.57c0 .57-.62.88-1.19.88h-3.84c-.84 0-1.22-.38-1.22-1.22l-.15-18.35c0-.84.83-1.22 1.67-1.22h5.64zm-.35 10.14a.55.55 0 0 1-.56-.56v-2.8c0-.3.24-.56.55-.56h.54c1.2 0 1.88.67 1.88 1.88 0 1.2-.67 2.03-1.88 2.03l-.53.01z"/>
  </clipPath>
  <g clip-path="url(#i)">
    <path fill="#fff" d="M157.1 17.1s.08-.95.1-1.01c.25-.6.94-.68 1.29-.35.77.72 2.07 3.4 2.01 3.8-.06.43-.9 1.59-1.45 1.15-.4-.32-.76-1.3-1.03-1.7a7.45 7.45 0 0 1-.92-1.9zM150.7 5.77c.05-1.06-.17-2.94.52-3.38.83-.52 1.64-.3 2.55-.3 2.1-.02 3.43 0 5.53.4 1 .18 2.27.48 2.46 1.63.13.83-1.11.97-1.57.76-1.94-.9-3.42-.6-5.14-.82-.64-.07-1.96-.11-2.07.85-.23 2.06-.17 2.12-.16 4.16 0 2.74.23 5.47.16 8.2-.02.92-.18 2.4-1.41 2.8-1.05.35-.75-1.19-.78-1.7-.15-2.17-.03-2.05 0-4.26.02-2.85-.25-5.49-.1-8.34zm9.8 7.53a6.09 6.09 0 0 1-5.53.97c-.68-.22-.38-.78-.09-1.3.63-1.1 2.74.65 4.8-2.27.4-.57-.18-3.02.1-3.67.28-.66 1.36-.65 1.67-.1.97 1.73.94 3.02.32 4.52-.26.6-.77 1.4-1.27 1.85z" serif:id="R"/>
  </g>
  <path fill="none" stroke="#2c2b93" stroke-width=".75" d="M157.09 1.28a7.92 7.92 0 0 1 8.13 8.1c0 2.49-.63 4.72-2.34 6.26a.56.56 0 0 0-.13.67c.53 1.02 1.8 3.74 2.48 5.05.08.15.07.33-.01.48a.49.49 0 0 1-.42.23h-5.36a.9.9 0 0 1-.7-.35c-.47-.61-1.15-1.6-1.86-2.54-.13-.16-.19-.07-.38 0a.47.47 0 0 0-.32.44v1.57c0 .57-.62.88-1.19.88h-3.84c-.84 0-1.22-.38-1.22-1.22l-.15-18.35c0-.84.83-1.22 1.67-1.22h5.64zm-.35 10.14a.55.55 0 0 1-.56-.56v-2.8c0-.3.24-.56.55-.56h.54c1.2 0 1.88.67 1.88 1.88 0 1.2-.67 2.03-1.88 2.03l-.53.01z"/>
  <path fill="#4038a0" d="M129.02 8.66a2.12 2.12 0 0 1-2.12-2.11V1.89c0-.59-.47-.76-1.06-.76h-3.87c-.58 0-1.06.17-1.06.76v19.13c0 .58.48 1.05 1.06 1.05H126c.58 0 1.05-.47 1.05-1.05v-4.45a2.03 2.03 0 0 1 2.04-2.03c1.12 0 2.03.9 2.03 2.03v4.45c0 .58.48 1.05 1.06 1.05h4.03c.58 0 1.05-.47 1.05-1.05V2.04c0-.59-.47-.9-1.05-.9h-4.03c-.58 0-1.06.31-1.06.9v2.4a4.22 4.22 0 0 1-4.22 4.22h2.12z" serif:id="H"/>
  <clipPath id="j">
    <path d="M129.02 8.66a2.12 2.12 0 0 1-2.12-2.11V1.89c0-.59-.47-.76-1.06-.76h-3.87c-.58 0-1.06.17-1.06.76v19.13c0 .58.48 1.05 1.06 1.05H126c.58 0 1.05-.47 1.05-1.05v-4.45a2.03 2.03 0 0 1 2.04-2.03c1.12 0 2.03.9 2.03 2.03v4.45c0 .58.48 1.05 1.06 1.05h4.03c.58 0 1.05-.47 1.05-1.05V2.04c0-.59-.47-.9-1.05-.9h-4.03c-.58 0-1.06.31-1.06.9v2.4a4.22 4.22 0 0 1-4.22 4.22h2.12z"/>
  </clipPath>
  <g clip-path="url(#j)">
    <path fill="#fff" d="M132.26 20.23c1.66.45 1.84-1.98 1.9-3.02l.1-1.91c.02-.66.23-1.68-.46-2.14-.59-.4-1.31.28-1.46.82-.52 1.82-.42 3.63-.3 5.5 0 .18.04.36.1.53.02.08.04.2.12.22m-10.44-1c-.06-2.73-.11-5.47-.15-8.2-.02-1.93.05-3.85 0-5.77-.03-.9-.73-2.58.5-3.16.36-.17.77-.2 1.17-.23.42-.02.85-.02 1.25.07.6.14.57.47.33.9-.52.94-.96.87-1 2.04-.11 3.98.3 9.88.13 13.87-.04.96-2.28 1.77-2.23.48m3.67-8.18c.14.53.86.48 1.24.49 1.71.02 3.43.02 5.14.03.37 0 1.17.01 1.53-.13.78-.3.72-1.35.72-1.98 0-1.63-.17-3.19.06-4.81.1-.76.5-1.02.92-1.59.13-.17.35-.5.24-.75-.09-.2-.54-.35-.73-.37-1-.1-1.3-.06-2.27.22-.17.06-.47.24-.46.47.02 1.6.17 3.19.25 4.78.02.36.07 1.14-.12 1.48-.25.46-.74.55-1.2.58-2.08.1-2.1-.11-4.17.08-.7.07-1.33.79-1.15 1.5" serif:id="H"/>
  </g>
  <path fill="none" stroke="#2c2b93" stroke-width=".75" d="M129.02 8.66a2.12 2.12 0 0 1-2.12-2.11V1.89c0-.59-.47-.76-1.06-.76h-3.87c-.58 0-1.06.17-1.06.76v19.13c0 .58.48 1.05 1.06 1.05H126c.58 0 1.05-.47 1.05-1.05v-4.45a2.03 2.03 0 0 1 2.04-2.03c1.12 0 2.03.9 2.03 2.03v4.45c0 .58.48 1.05 1.06 1.05h4.03c.58 0 1.05-.47 1.05-1.05V2.04c0-.59-.47-.9-1.05-.9h-4.03c-.58 0-1.06.31-1.06.9v2.4a4.22 4.22 0 0 1-4.22 4.22h2.12z"/>
  <path fill="#4038a0" d="M116.93 4.63a2.4 2.4 0 0 0-1.35-3.51 13.23 13.23 0 0 0-3.18-.44c-6.02 0-11.37 5.04-11.37 11.07s5.35 11.07 11.37 11.07c.99 0 2-.17 2.98-.46a2.37 2.37 0 0 0 1.44-3.35c-.17-.4-.38-.8-.57-1.18a2.4 2.4 0 0 0-2.45-1.28c-.54.07-1.09.05-1.55.05-3.01 0-5-1.99-5-5 0-3.02 2.14-5 5.15-5 .45 0 .94 0 1.42.09.98.2 1.98-.25 2.49-1.11.23-.29.43-.62.62-.95z"/>
  <clipPath id="k">
    <path d="M116.93 4.63a2.4 2.4 0 0 0-1.35-3.51 13.23 13.23 0 0 0-3.18-.44c-6.02 0-11.37 5.04-11.37 11.07s5.35 11.07 11.37 11.07c.99 0 2-.17 2.98-.46a2.37 2.37 0 0 0 1.44-3.35c-.17-.4-.38-.8-.57-1.18a2.4 2.4 0 0 0-2.45-1.28c-.54.07-1.09.05-1.55.05-3.01 0-5-1.99-5-5 0-3.02 2.14-5 5.15-5 .45 0 .94 0 1.42.09.98.2 1.98-.25 2.49-1.11.23-.29.43-.62.62-.95z"/>
  </clipPath>
  <g clip-path="url(#k)">
    <path fill="#fff" d="M107.54 17.55c0-.64.6-.82 1.14-.76 1.46.17 1.36.69 2.82.9.56.07 2.7-.1 3.03.62.56 1.26-1.42 1.11-1.89 1.12-1.84.05-3.8.09-5.05-1.5l-.05-.38zm7.7-13.89c-6.44-.07-8.85 1.76-10.16 3.84a8.61 8.61 0 0 0-.8 6.95c.18.59 1.38 2.54 1.55 3.14.2.74-.86 1.36-1.38.77-2.15-2.41-3.36-6.89-2-10.17 2.48-6 9.22-6.8 12.18-6.05 3 .76.97 1.53.6 1.52z"/>
  </g>
  <path fill="none" stroke="#2c2b93" stroke-width=".75" d="M116.93 4.63a2.4 2.4 0 0 0-1.35-3.51 13.23 13.23 0 0 0-3.18-.44c-6.02 0-11.37 5.04-11.37 11.07s5.35 11.07 11.37 11.07c.99 0 2-.17 2.98-.46a2.37 2.37 0 0 0 1.44-3.35c-.17-.4-.38-.8-.57-1.18a2.4 2.4 0 0 0-2.45-1.28c-.54.07-1.09.05-1.55.05-3.01 0-5-1.99-5-5 0-3.02 2.14-5 5.15-5 .45 0 .94 0 1.42.09.98.2 1.98-.25 2.49-1.11.23-.29.43-.62.62-.95z"/>
  <path fill="#4038a0" d="M96.97 2.65c0-.84-.69-1.52-1.53-1.52H92.4c-.84 0-1.53.69-1.53 1.52v18.5c0 .85.69 1.07 1.53 1.07h3.04c.84 0 1.53-.22 1.53-1.06V2.66z"/>
  <clipPath id="l">
    <path d="M96.97 2.65c0-.84-.69-1.52-1.53-1.52H92.4c-.84 0-1.53.69-1.53 1.52v18.5c0 .85.69 1.07 1.53 1.07h3.04c.84 0 1.53-.22 1.53-1.06V2.66z"/>
  </clipPath>
  <g clip-path="url(#l)">
    <path fill="#fff" d="M91.74 2.87c0-.2.45-.58.6-.63.83-.24 1.99-.57 2.46.42.26.53-.5.94-.6 1.34-.25.88-.41 1.8-.47 2.7-.17 2.63.02 7.86.03 10.48 0 1.47-.26 2.85-1.83 3.33-.55.17-.51-.74-.5-.97.04-1.01.17-2.02.18-3.04.05-3.34-.01-6.68 0-10.02 0-1.01-.08-2.03.05-3.03l.08-.58" serif:id="I"/>
  </g>
  <path fill="none" stroke="#2c2b93" stroke-width=".75" d="M96.97 2.65c0-.84-.69-1.52-1.53-1.52H92.4c-.84 0-1.53.69-1.53 1.52v18.5c0 .85.69 1.07 1.53 1.07h3.04c.84 0 1.53-.22 1.53-1.06V2.66z"/>
  <path fill="#4038a0" d="M78.5 1.13a8.17 8.17 0 0 1 8.28 8.25c0 2.49-.93 4.72-2.65 6.26a.56.56 0 0 0-.12.67l2.63 5.05a.49.49 0 0 1-.44.71h-5.04a.9.9 0 0 1-.72-.35c-.46-.61-1.29-1.6-2-2.54a.48.48 0 0 0-.86.3c0 .6.16 1 .16 1.56 0 .57-.47 1.03-1.04 1.03h-3.84c-.84 0-1.52-.68-1.52-1.52V2.35c0-.84.68-1.22 1.52-1.22h5.63zm-.35 9.99a.56.56 0 0 1-.57-.55V7.75c0-.3.25-.55.56-.55h.54c1.2 0 1.88.97 1.88 2.18 0 1.2-.67 1.73-1.88 1.73l-.53.01z" serif:id="R"/>
  <clipPath id="m">
    <path d="M78.5 1.13a8.17 8.17 0 0 1 8.28 8.25c0 2.49-.93 4.72-2.65 6.26a.56.56 0 0 0-.12.67l2.63 5.05a.49.49 0 0 1-.44.71h-5.04a.9.9 0 0 1-.72-.35c-.46-.61-1.29-1.6-2-2.54a.48.48 0 0 0-.86.3c0 .6.16 1 .16 1.56 0 .57-.47 1.03-1.04 1.03h-3.84c-.84 0-1.52-.68-1.52-1.52V2.35c0-.84.68-1.22 1.52-1.22h5.63zm-.35 9.99a.56.56 0 0 1-.57-.55V7.75c0-.3.25-.55.56-.55h.54c1.2 0 1.88.97 1.88 2.18 0 1.2-.67 1.73-1.88 1.73l-.53.01z" serif:id="R"/>
  </clipPath>
  <g clip-path="url(#m)">
    <path fill="#fff" d="M78.51 17.1s.07-.95.1-1.01c.25-.6.94-.68 1.29-.35.77.72 2.07 3.26 2.01 3.66-.06.41-.6 1.42-1.15.99a8.92 8.92 0 0 1-1.33-1.55 7.13 7.13 0 0 1-.92-1.74zM71.94 5.77c.06-1.06-.02-3.24.68-3.68.83-.52 1.64-.15 2.55-.16 2.1-.01 4.46-.01 5.53.31 1.05.32 2.27.57 2.45 1.73.14.83-1.1 1.1-1.57.9-2.14-.89-3.2-.87-5.14-.8-.64.02-1.95-.12-2.06.84-.23 2.06.13 2.12.14 4.16 0 2.74-.07 5.47-.14 8.2-.02.92.12 2.4-1.11 2.8-1.05.35-1.05-1.19-1.09-1.7-.14-2.17-.38-10.03-.24-12.6zm4.55 8.6c-.03-.01-.05-.07-.12-.1-.63-.34-.38-.78-.09-1.3.63-1.1 3.11-.38 4.78-1.96a.83.83 0 0 0 .1-.1c.4-.55-.27-3.23.02-3.88.28-.66 1.36-.8 1.67-.25.96 1.73.94 3.18.31 4.67a5.9 5.9 0 0 1-1.26 1.85c-.82.75-4.64 1.35-5.41 1.07z" serif:id="R"/>
  </g>
  <path fill="none" stroke="#2c2b93" stroke-width=".75" d="M78.5 1.13a8.17 8.17 0 0 1 8.28 8.25c0 2.49-.93 4.72-2.65 6.26a.56.56 0 0 0-.12.67l2.63 5.05a.49.49 0 0 1-.44.71h-5.04a.9.9 0 0 1-.72-.35c-.46-.61-1.29-1.6-2-2.54a.48.48 0 0 0-.86.3c0 .6.16 1 .16 1.56 0 .57-.47 1.03-1.04 1.03h-3.84c-.84 0-1.52-.68-1.52-1.52V2.35c0-.84.68-1.22 1.52-1.22h5.63zm-.35 9.99a.56.56 0 0 1-.57-.55V7.75c0-.3.25-.55.56-.55h.54c1.2 0 1.88.97 1.88 2.18 0 1.2-.67 1.73-1.88 1.73l-.53.01z" serif:id="R"/>
  <path fill="#4038a0" d="M59.66 8.76c.6-.2.52-2.45.52-3.5 0-.95.1-2.9.1-2.9 0-.85.84-1.23 1.68-1.23h3.05c.84 0 1.22.38 1.22 1.22v18.5c0 .84-.08 1.22-.92 1.22h-2.43c-1.9-.13-7.7-10.23-8.01-7.38v6.01c0 .84-.53 1.37-1.37 1.37h-3.35c-.84 0-1.37-.68-1.37-1.52V2.35c0-.84.53-1.22 1.37-1.22h1.6c.69-.07 1.52.07 2.08.7 2.2 2.5 5.05 7.2 5.83 6.93z"/>
  <clipPath id="n">
    <path d="M59.66 8.76c.6-.2.52-2.45.52-3.5 0-.95.1-2.9.1-2.9 0-.85.84-1.23 1.68-1.23h3.05c.84 0 1.22.38 1.22 1.22v18.5c0 .84-.08 1.22-.92 1.22h-2.43c-1.9-.13-7.7-10.23-8.01-7.38v6.01c0 .84-.53 1.37-1.37 1.37h-3.35c-.84 0-1.37-.68-1.37-1.52V2.35c0-.84.53-1.22 1.37-1.22h1.6c.69-.07 1.52.07 2.08.7 2.2 2.5 5.05 7.2 5.83 6.93z" serif:id="N"/>
  </clipPath>
  <g clip-path="url(#n)">
    <path fill="#fff" d="M53.3 7.24c.26 0 .55-.14.81.02 1.01.65 1.4 1.93 2.12 2.8 1.92 2.25 3.77 4.63 5.7 6.86.46.53.75 1.48.77 2.18 0 .32-.02 1.57-.84 1.02-1.35-.92-1.39-1.38-2.43-2.58-1.87-2.17-3.72-3.92-5.06-6.5-.54-1.07-1.37-2.58-1.08-3.8zm-3.78-3.81c0-.59.07-.76.53-1.18.77-.7 1.94-.52 2.08.48.12.94-.18.87-.35 1.73-.18.96-.25 1.98-.27 2.95-.03 1.01.23 2.02.27 3.03.06 1.91-.12 3.83-.14 5.75-.02 1.29.08 1.93-.46 3.11-.32.69-1.51.68-1.65-.14-.26-1.5 0-1.8.06-3.3.06-1.44.1-2.89.1-4.33-.02-2.7-.1-5.4-.17-8.1zm13.1 11.74c-.54.16-.84-.86-.9-1.07-.2-.6-.53-1.87-.6-2.5-.25-2.36-.03-4.06-.15-6.43-.04-.9-.44-3 1.07-3.24a4.36 4.36 0 0 1 1.88.13c1.49.47-.48 1.65-.69 2.17-.22.55-.05 2.8-.04 3.37.02 2.28.14 4.57.14 6.86 0 .36-.36.62-.7.71z" serif:id="N"/>
  </g>
  <path fill="none" stroke="#2c2b93" stroke-width=".75" d="M59.66 8.76c.6-.2.52-2.45.52-3.5 0-.95.1-2.9.1-2.9 0-.85.84-1.23 1.68-1.23h3.05c.84 0 1.22.38 1.22 1.22v18.5c0 .84-.08 1.22-.92 1.22h-2.43c-1.9-.13-7.7-10.23-8.01-7.38v6.01c0 .84-.53 1.37-1.37 1.37h-3.35c-.84 0-1.37-.68-1.37-1.52V2.35c0-.84.53-1.22 1.37-1.22h1.6c.69-.07 1.52.07 2.08.7 2.2 2.5 5.05 7.2 5.83 6.93z" serif:id="N"/>
  <path fill="#4038a0" d="M43.81 2.35c0-.84-.68-1.52-1.52-1.52h-3.05c-.84 0-1.52.68-1.52 1.52v18.2c0 .84.68 1.52 1.52 1.52h3.05c.84 0 1.52-.68 1.52-1.52V2.35z" serif:id="I"/>
  <clipPath id="o">
    <path d="M43.81 2.35c0-.84-.68-1.52-1.52-1.52h-3.05c-.84 0-1.52.68-1.52 1.52v18.2c0 .84.68 1.52 1.52 1.52h3.05c.84 0 1.52-.68 1.52-1.52V2.35z" serif:id="I"/>
  </clipPath>
  <g clip-path="url(#o)">
    <path fill="#fff" d="M38.74 2.42c0-.2.45-.58.6-.63.83-.25 1.99-.57 2.46.41.26.54-.5.95-.6 1.35-.25.88-.41 1.79-.47 2.7-.17 2.62.02 7.85.03 10.48 0 1.46-.26 2.85-1.83 3.32-.55.17-.51-.74-.5-.96.04-1.02.17-2.03.18-3.05.05-3.34-.01-6.68 0-10.02 0-1-.08-2.02.06-3.02l.07-.58" serif:id="I"/>
  </g>
  <path fill="none" stroke="#2c2b93" stroke-width=".75" d="M43.81 2.35c0-.84-.68-1.52-1.52-1.52h-3.05c-.84 0-1.52.68-1.52 1.52v18.2c0 .84.68 1.52 1.52 1.52h3.05c.84 0 1.52-.68 1.52-1.52V2.35z" serif:id="I"/>
  <path fill="#4038a0" d="M27.46 7.49a1.06 1.06 0 0 0 1.07 1.06h3.18a.67.67 0 0 1 .67.67v4.26a.66.66 0 0 1-.67.66h-3.08a1.17 1.17 0 1 0 0 2.34h4.53a.67.67 0 0 1 .66.67v4.26a.67.67 0 0 1-.66.66H22.52a1.15 1.15 0 0 1-1.15-1.15V1.98A1.15 1.15 0 0 1 22.52.83h10.64a.67.67 0 0 1 .66.67v4.25a.67.67 0 0 1-.66.67h-4.63a1.07 1.07 0 0 0-1.07 1.07z" serif:id="E"/>
  <clipPath id="p">
    <path d="M27.46 7.49a1.06 1.06 0 0 0 1.07 1.06h3.18a.67.67 0 0 1 .67.67v4.26a.66.66 0 0 1-.67.66h-3.08a1.17 1.17 0 1 0 0 2.34h4.53a.67.67 0 0 1 .66.67v4.26a.67.67 0 0 1-.66.66H22.52a1.15 1.15 0 0 1-1.15-1.15V1.98A1.15 1.15 0 0 1 22.52.83h10.64a.67.67 0 0 1 .66.67v4.25a.67.67 0 0 1-.66.67h-4.63a1.07 1.07 0 0 0-1.07 1.07z" serif:id="E"/>
  </clipPath>
  <g clip-path="url(#p)">
    <path fill="#fff" d="M22.66 1.73c2.4 0 4.8.03 7.19.07.57 0 1.3.04 1.83.33.8.44-.6 1.11-.78 1.16-1.68.45-2 .18-3.7.15-.75-.01-1.77-.01-2.42.48-.17.13-.16.4-.18.6-.08 1.08-.08 2.16-.1 3.24-.01 1.87.06 8.4-.13 10.27-.05.5-.77 2.28-1.68 2.07-.33-.08-.57-.71-.59-.98-.16-1.7.06-1.71.08-3.42.04-3.66.03-7.31.02-10.97 0-.86-.15-1.7.2-2.54l.26-.46zm3.55 16.48c0-.16 0-.46.1-.6.3-.43.95-.35 1.39-.38 1.27-.09 1.65-.18 2.92-.11.4.02.62.13.96.33.07.04.21.17.2.27-.02.18-.2.43-.3.57-.14.18-.38.51-.59.62-.74.4-1.65.23-2.43.16l-1.41-.16c-.23-.02-.77 0-.77-.38l-.07-.32zm0-8.17c.58-.75 1.96-.74 3.06-.62.35.04 1.38.52.92 1.02-.7.76-2.01.73-2.95.8-.48.03-1.15.12-1.16-.58 0-.5.13-.62.13-.62z" serif:id="E"/>
  </g>
  <path fill="none" stroke="#2c2b93" stroke-width=".75" d="M27.46 7.49a1.06 1.06 0 0 0 1.07 1.06h3.18a.67.67 0 0 1 .67.67v4.26a.66.66 0 0 1-.67.66h-3.08a1.17 1.17 0 1 0 0 2.34h4.53a.67.67 0 0 1 .66.67v4.26a.67.67 0 0 1-.66.66H22.52a1.15 1.15 0 0 1-1.15-1.15V1.98A1.15 1.15 0 0 1 22.52.83h10.64a.67.67 0 0 1 .66.67v4.25a.67.67 0 0 1-.66.67h-4.63a1.07 1.07 0 0 0-1.07 1.07z" serif:id="E"/>
  <path fill="#4038a0" d="M8.48 8.2a2.11 2.11 0 0 1-2.11-2.1V1.88C6.37 1.3 5.89.83 5.3.83H1.43C.85.83.38 1.3.38 1.89v18.97c0 .59.47 1.06 1.05 1.06h3.88c.58 0 1.06-.47 1.06-1.06V16.5a2.11 2.11 0 0 1 2.1-2.12c1.17 0 2.11.95 2.11 2.11v4.53c0 .58.48.75 1.06.75h3.73c.58 0 1.05-.17 1.05-.76V1.9c0-.59-.32-.91-.9-.91h-3.88c-.58 0-1.06.47-1.06 1.06v1.95A4.22 4.22 0 0 1 6.37 8.2h2.11z" serif:id="H"/>
  <clipPath id="q">
    <path d="M8.48 8.2a2.11 2.11 0 0 1-2.11-2.1V1.88C6.37 1.3 5.89.83 5.3.83H1.43C.85.83.38 1.3.38 1.89v18.97c0 .59.47 1.06 1.05 1.06h3.88c.58 0 1.06-.47 1.06-1.06V16.5a2.11 2.11 0 0 1 2.1-2.12c1.17 0 2.11.95 2.11 2.11v4.53c0 .58.48.75 1.06.75h3.73c.58 0 1.05-.17 1.05-.76V1.9c0-.59-.32-.91-.9-.91h-3.88c-.58 0-1.06.47-1.06 1.06v1.95A4.22 4.22 0 0 1 6.37 8.2h2.11z" serif:id="H"/>
  </clipPath>
  <g clip-path="url(#q)">
    <path fill="#fff" d="M11.57 19.93c1.66.44 1.84-1.98 1.9-3.02l.1-1.92c.02-.65.23-1.67-.46-2.13-.58-.4-1.3.28-1.46.82-.52 1.82-.42 3.62-.3 5.5 0 .18.04.36.1.53.02.08.04.2.12.22m-10.44-1c-.05-2.74-.11-5.47-.14-8.2-.03-1.93.04-3.85-.01-5.78-.03-.88-.72-2.58.5-3.15.36-.17.78-.2 1.18-.23.41-.03.84-.03 1.24.07.6.14.57.46.33.9-.52.93-.96.87-1 2.03-.1 3.99.3 9.89.13 13.87-.04.97-2.28 1.78-2.23.49m3.68-8.18c.13.53.85.48 1.23.48 1.71.03 3.43.03 5.14.04.37 0 1.18 0 1.54-.13.77-.3.71-1.35.71-1.98.01-1.63-.17-3.19.06-4.82.1-.75.5-1.01.92-1.58.13-.17.36-.5.25-.75-.1-.2-.55-.35-.74-.37-1-.1-1.3-.06-2.27.22-.17.05-.47.24-.46.47.03 1.6.17 3.18.25 4.78.02.36.08 1.13-.12 1.48-.25.45-.74.55-1.2.57-2.08.1-2.1-.1-4.17.09-.7.06-1.33.78-1.14 1.5" serif:id="H"/>
  </g>
  <path fill="none" stroke="#2c2b93" stroke-width=".75" d="M8.48 8.2a2.11 2.11 0 0 1-2.11-2.1V1.88C6.37 1.3 5.89.83 5.3.83H1.43C.85.83.38 1.3.38 1.89v18.97c0 .59.47 1.06 1.05 1.06h3.88c.58 0 1.06-.47 1.06-1.06V16.5a2.11 2.11 0 0 1 2.1-2.12c1.17 0 2.11.95 2.11 2.11v4.53c0 .58.48.75 1.06.75h3.73c.58 0 1.05-.17 1.05-.76V1.9c0-.59-.32-.91-.9-.91h-3.88c-.58 0-1.06.47-1.06 1.06v1.95A4.22 4.22 0 0 1 6.37 8.2h2.11z" serif:id="H"/>
</svg>
